<svg width="141" height="50" viewBox="0 0 141 50" fill="none" xmlns="http://www.w3.org/2000/svg">
<path d="M3.1465 1.866H19.285C24.8675 1.866 29.2997 3.47308 32.5815 6.68725C35.8633 9.86758 37.5043 14.249 37.5043 19.8315C37.5043 25.7862 35.9141 30.3029 32.7338 33.3817C29.5873 36.4606 25.0367 38 19.082 38H3.1465V1.866ZM14.007 10.9502V28.865H18.3715C21.0443 28.865 23.0574 28.0868 24.4108 26.5305C25.7979 24.9742 26.4915 22.8088 26.4915 20.0345C26.4915 17.0233 25.6795 14.7565 24.0555 13.234C22.4653 11.7115 20.2154 10.9502 17.3058 10.9502H14.007ZM71.726 22.0137V30.3367H67.1078V38H56.8055V30.3367H41.276V21.1002L57.0593 2.881H67.1078V22.0137H71.726ZM57.1608 22.0645V15.3655L57.313 12.1175L48.9393 22.2167C50.4618 22.1152 51.5106 22.0645 52.0858 22.0645H57.1608ZM99.8493 11.1576V18.4337L99.8116 20.6203C100.641 19.6904 101.47 19.0369 102.3 18.6599C103.154 18.2578 104.197 18.0567 105.429 18.0567C107.238 18.0567 108.784 18.5594 110.066 19.5647C111.348 20.57 112.253 21.8141 112.78 23.297C113.333 24.7547 113.61 26.3758 113.61 28.1603C113.61 31.2517 112.831 33.7525 111.272 35.6626C109.714 37.5476 107.666 38.4901 105.127 38.4901C102.74 38.4901 100.892 37.623 99.5854 35.8888V38H92.4224V11.1576H99.8493ZM102.865 23.7117C101.835 23.7117 101.031 24.1013 100.452 24.8804C99.8995 25.6344 99.6231 26.7151 99.6231 28.1226C99.6231 31.0883 100.716 32.5712 102.903 32.5712C105.039 32.5712 106.107 31.1009 106.107 28.1603C106.107 26.778 105.818 25.6972 105.24 24.9181C104.662 24.1138 103.871 23.7117 102.865 23.7117ZM136.171 18.5468L129.046 38.4524C128.266 40.639 127.311 42.1596 126.18 43.0141C125.075 43.8686 123.378 44.2959 121.091 44.2959H116.228V38.3393C116.755 38.3644 117.333 38.377 117.962 38.377C118.364 38.377 118.691 38.3644 118.942 38.3393C119.193 38.3142 119.482 38.2513 119.809 38.1508C120.136 38.0754 120.387 37.9246 120.563 37.6984C120.739 37.4471 120.827 37.1329 120.827 36.7559C120.827 36.5046 120.752 36.1904 120.601 35.8134L114.267 18.5468H122.184L124.371 26.2376C124.723 27.4943 125.037 29.0023 125.313 30.7616C125.766 28.4493 126.118 26.8659 126.369 26.0114L128.518 18.5468H136.171Z" fill="#EDF7F9"/>
<path d="M81.898 29C79.2263 29 77 31.2263 77 33.898C77 36.5696 79.2263 38.7959 81.898 38.7959C84.5696 38.7959 86.7959 36.5696 86.7959 33.898C86.7959 31.2263 84.6809 29 81.898 29Z" fill="#FAB005"/>
</svg>
